<svg width="27" height="26" viewBox="0 0 27 26" fill="none" xmlns="http://www.w3.org/2000/svg">
<g filter="url(#filter0_d_574_13)">
<path fill-rule="evenodd" clip-rule="evenodd" d="M21.5789 0.940156C21.8601 1.22145 22.0181 1.60291 22.0181 2.00066C22.0181 2.3984 21.8601 2.77986 21.5789 3.06116L14.0789 10.5612C13.7976 10.8424 13.4162 11.0003 13.0184 11.0003C12.6207 11.0003 12.2392 10.8424 11.9579 10.5612L4.45793 3.06116C4.1847 2.77825 4.0335 2.39935 4.03692 2.00605C4.04034 1.61276 4.19809 1.23654 4.4762 0.958428C4.75432 0.680316 5.13054 0.522562 5.52383 0.519145C5.91713 0.515727 6.29603 0.666919 6.57893 0.940156L13.0184 7.37966L19.4579 0.940156C19.7392 0.65895 20.1207 0.500977 20.5184 0.500977C20.9162 0.500977 21.2976 0.65895 21.5789 0.940156ZM21.5789 9.94016C21.8601 10.2214 22.0181 10.6029 22.0181 11.0007C22.0181 11.3984 21.8601 11.7799 21.5789 12.0612L14.0789 19.5612C13.7976 19.8424 13.4162 20.0003 13.0184 20.0003C12.6207 20.0003 12.2392 19.8424 11.9579 19.5612L4.45793 12.0612C4.31467 11.9228 4.20039 11.7573 4.12178 11.5743C4.04317 11.3913 4.00179 11.1944 4.00006 10.9953C3.99833 10.7961 4.03628 10.5986 4.1117 10.4142C4.18712 10.2299 4.2985 10.0624 4.43934 9.92156C4.58018 9.78073 4.74766 9.66935 4.932 9.59392C5.11635 9.5185 5.31387 9.48055 5.51303 9.48228C5.7122 9.48401 5.90903 9.52539 6.09204 9.604C6.27504 9.68262 6.44056 9.79689 6.57893 9.94016L13.0184 16.3797L19.4579 9.94016C19.7392 9.65895 20.1207 9.50098 20.5184 9.50098C20.9162 9.50098 21.2976 9.65895 21.5789 9.94016V9.94016Z" fill="#8483B8"/>
</g>
<defs>
<filter id="filter0_d_574_13" x="0" y="0.500977" width="26.0176" height="27.499" filterUnits="userSpaceOnUse" color-interpolation-filters="sRGB">
<feFlood flood-opacity="0" result="BackgroundImageFix"/>
<feColorMatrix in="SourceAlpha" type="matrix" values="0 0 0 0 0 0 0 0 0 0 0 0 0 0 0 0 0 0 127 0" result="hardAlpha"/>
<feOffset dy="4"/>
<feGaussianBlur stdDeviation="2"/>
<feComposite in2="hardAlpha" operator="out"/>
<feColorMatrix type="matrix" values="0 0 0 0 0 0 0 0 0 0 0 0 0 0 0 0 0 0 0.25 0"/>
<feBlend mode="normal" in2="BackgroundImageFix" result="effect1_dropShadow_574_13"/>
<feBlend mode="normal" in="SourceGraphic" in2="effect1_dropShadow_574_13" result="shape"/>
</filter>
</defs>
</svg>
