<svg width="40" height="36" viewBox="0 0 40 36" fill="none" xmlns="http://www.w3.org/2000/svg">
<g filter="url(#filter0_d_339_38)">
<path fill-rule="evenodd" clip-rule="evenodd" d="M36 16C36 20.2435 34.3143 24.3131 31.3137 27.3137C28.3131 30.3143 24.2435 32 20 32C15.7565 32 11.6869 30.3143 8.68629 27.3137C5.68571 24.3131 4 20.2435 4 16C4 11.7565 5.68571 7.68687 8.68629 4.68629C11.6869 1.68571 15.7565 0 20 0C24.2435 0 28.3131 1.68571 31.3137 4.68629C34.3143 7.68687 36 11.7565 36 16ZM24 10C24 11.0609 23.5786 12.0783 22.8284 12.8284C22.0783 13.5786 21.0609 14 20 14C18.9391 14 17.9217 13.5786 17.1716 12.8284C16.4214 12.0783 16 11.0609 16 10C16 8.93913 16.4214 7.92172 17.1716 7.17157C17.9217 6.42143 18.9391 6 20 6C21.0609 6 22.0783 6.42143 22.8284 7.17157C23.5786 7.92172 24 8.93913 24 10ZM20 18C18.0852 17.9996 16.2106 18.549 14.5988 19.5828C12.9871 20.6166 11.7061 22.0915 10.908 23.832C12.0334 25.1412 13.4285 26.1915 14.9979 26.911C16.5672 27.6304 18.2736 28.0019 20 28C21.7264 28.0019 23.4328 27.6304 25.0021 26.911C26.5715 26.1915 27.9666 25.1412 29.092 23.832C28.2939 22.0915 27.0129 20.6166 25.4012 19.5828C23.7894 18.549 21.9148 17.9996 20 18Z" fill="#03045E"/>
</g>
<defs>
<filter id="filter0_d_339_38" x="0" y="0" width="40" height="40" filterUnits="userSpaceOnUse" color-interpolation-filters="sRGB">
<feFlood flood-opacity="0" result="BackgroundImageFix"/>
<feColorMatrix in="SourceAlpha" type="matrix" values="0 0 0 0 0 0 0 0 0 0 0 0 0 0 0 0 0 0 127 0" result="hardAlpha"/>
<feOffset dy="4"/>
<feGaussianBlur stdDeviation="2"/>
<feComposite in2="hardAlpha" operator="out"/>
<feColorMatrix type="matrix" values="0 0 0 0 0 0 0 0 0 0 0 0 0 0 0 0 0 0 0.25 0"/>
<feBlend mode="normal" in2="BackgroundImageFix" result="effect1_dropShadow_339_38"/>
<feBlend mode="normal" in="SourceGraphic" in2="effect1_dropShadow_339_38" result="shape"/>
</filter>
</defs>
</svg>
